# xmcd
#
# Track frame offsets: 
#        150
#        26445
#        53812
#        74112
#        98295
#        106722
#        121572
#        137370
#        177300
#        197987
#        225672
#        252287
#
# Disc length: 3778 seconds
#
# Revision: 7
# Processed by: cddbd v1.5.2PL0 Copyright (c) Steve Scherf et al.
# Submitted via: ExactAudioCopy v1.0b3
#
DISCID=950ec00c
DTITLE=Huelgas Ensemble, Paul Van Nevel - Manchicourt, Missa Veni Sanc
DTITLE=te Spiritus - Motets - Chansons
DYEAR=1996
DGENRE=Renaissance
TTITLE0=Reges Terrae
TTITLE1=Missa Veni Sancte Spiritus - Kyrie
TTITLE2=O Virgo Virginum
TTITLE3=Missa Veni Sancte Spiritus - Gloria
TTITLE4=3 Chansons - Long temps mon cueur languissoit
TTITLE5=3 Chansons - Faulte dargent cest douleur non pareille
TTITLE6=3 Chansons - Ô cruaulté logée en grand beauté
TTITLE7=Missa Veni Sancte Spiritus - Credo
TTITLE8=Maria Magdalene
TTITLE9=Missa Veni Sancte Spiritus - Sanctus
TTITLE10=Usquequo piger dormies
TTITLE11=Missa Veni Sancte Spiritus - Agnus Dei
EXTD=YEAR: 1996
EXTT0=
EXTT1=
EXTT2=
EXTT3=
EXTT4=
EXTT5=
EXTT6=
EXTT7=
EXTT8=
EXTT9=
EXTT10=
EXTT11=
PLAYORDER=
